<?xml version="1.0" encoding="utf-8"?>
<!-- Generator: Adobe Illustrator 16.0.0, SVG Export Plug-In . SVG Version: 6.00 Build 0)  -->
<!DOCTYPE svg PUBLIC "-//W3C//DTD SVG 1.1//EN" "http://www.w3.org/Graphics/SVG/1.1/DTD/svg11.dtd">
<svg version="1.1" id="Layer_1" xmlns="http://www.w3.org/2000/svg" xmlns:xlink="http://www.w3.org/1999/xlink" x="0px" y="0px"
	 width="245px" height="65px" viewBox="0 0 245 65" enable-background="new 0 0 245 65" xml:space="preserve">
<g>
	<path fill="#009BD9" d="M70.763,18.563l-1.742,6.441c-2.271,0-4.979,0-8.3,0c-8.578,0-14.28,7.582-14.28,18.48
		c0,3.369,1.163,10.438,9.629,10.912l-0.123,0.049h18.829l7.399-35.882H70.763z M64.547,51.238c0.013-0.022,0.033-0.04,0.046-0.062
		h0.111L64.547,51.238z M61.44,47.195c-2.878,0-4.04-2.104-4.04-4.705c0-4.151,1.437-9.518,5.81-9.518
		c2.822,0,3.93,2.045,3.93,5.313C67.141,41.658,65.646,47.195,61.44,47.195z M101.505,25.724c-0.29,0-0.596,0.025-0.902,0.06
		l0.095-0.06H83.353l-5.919,28.723H88.39l2.489-12.012c1.329-5.979,3.598-8.023,8.246-8.023c1.384,0,2.848,0,4.208,0l2.046-8.688
		C104.311,25.724,103.333,25.724,101.505,25.724z M93.04,30.204l0.193-0.112c-0.025,0.04-0.058,0.071-0.084,0.112H93.04z
		 M224.902,25.724c-1.067,0-2.049,0-3.875,0c-0.289,0-0.594,0.025-0.899,0.06l0.095-0.06h-17.345l-5.919,28.723h10.956l2.489-12.012
		c1.328-5.979,3.596-8.023,8.244-8.023c1.384,0,2.846,0,4.205,0L224.902,25.724z M212.562,30.204l0.192-0.112
		c-0.024,0.04-0.058,0.071-0.083,0.112H212.562z M126.629,25.724l-2.49,11.674c-0.886,3.709-1.165,9.021-6.033,9.021
		c-1.605,0-3.155-0.941-3.155-2.548c0-0.828,0.055-1.659,0.442-3.153l3.21-14.996h-10.956c-3.376,15.824-4.261,19.313-4.261,21.802
		c0,5.533,4.095,6.92,9.131,6.92c0.029,0,0.057-0.006,0.088-0.006l-0.008,0.006h19.012l5.976-28.722L126.629,25.724L126.629,25.724z
		 M121.69,50.859c0.022-0.023,0.045-0.045,0.067-0.069h0.113L121.69,50.859z M184.85,25.004c-7.084,0-12.895,1.717-14.666,9.407
		h10.295c0.606-2.159,2.156-2.934,4.371-2.934c1.715,0,3.433,0.5,3.433,2.49c0,3.485-4.927,3.154-8.027,3.32
		c-5.282,0.396-9.521,1.396-11.868,4.086c0.271-1.525,0.412-3.071,0.412-4.584c0-5-2.312-10.839-10.043-11.046l0.053-0.02h-18.229
		l-7.972,38.018h10.957l2.604-12.784c2.378,3.816,5.531,4.205,8.633,4.205c5.586,0,9.361-3.229,11.571-7.596
		c0.024,5.498,4.386,6.879,9.296,6.879c0.355,0,0.729-0.01,1.1-0.023l-0.006,0.023h18.033c-0.02-0.055-0.033-0.088-0.046-0.125
		c0.022,0.063,0.046,0.125,0.046,0.125s4.002-17.323,4.002-21.804C198.793,25.724,190.049,25.004,184.85,25.004z M150.698,28.922
		c-0.017,0.025-0.038,0.043-0.056,0.065h-0.108L150.698,28.922z M152.084,47.195c-3.6,0-3.982-3.653-3.982-4.705
		c0-2.49,0.885-9.518,5.754-9.518c3.266,0,3.984,2.213,3.984,5.09C157.84,41.77,156.512,47.195,152.084,47.195z M184.51,51.684
		l0.006-0.008h0.111C184.594,51.676,184.549,51.684,184.51,51.684z M180.809,48.688c-1.769,0-3.485-0.496-3.485-2.487
		c0-2.156,1.719-3.045,3.542-3.211c1.992-0.165,4.037-0.388,5.812-1.273C186.01,45.979,184.516,48.688,180.809,48.688z
		 M235.7,46.309c1.771,0,2.713-0.108,3.598-0.164l-1.657,7.912c-1.938,0.392-3.93,0.555-5.923,0.719c-2.383,0-4.76,0-6.919-1.16
		c-1.936-1.053-2.986-3.266-2.986-5.424c0-1.551,0.33-2.604,0.609-3.93l2.544-11.787l1.438-6.751l1.436-6.298h10.959l-1.438,6.298
		h5.922l-1.551,6.751h-5.812l-1.938,9.239c-0.223,0.943-0.498,1.938-0.498,2.878C233.484,45.532,233.984,46.309,235.7,46.309z
		 M241.68,41.646c-1.212,0-2.291,0.875-2.291,2.229c0,1.363,1.079,2.241,2.291,2.241c1.217,0,2.297-0.878,2.297-2.241
		C243.977,42.521,242.896,41.646,241.68,41.646z M241.68,45.639c-0.937,0-1.685-0.74-1.685-1.763c0-1.015,0.748-1.751,1.685-1.751
		c0.928,0,1.688,0.736,1.688,1.751C243.368,44.896,242.607,45.639,241.68,45.639z M242.715,43.361c0-0.543-0.355-0.739-0.98-0.739
		h-0.939v2.505h0.494v-1.074h0.311l0.609,1.074h0.52l-0.668-1.097C242.423,44.003,242.715,43.822,242.715,43.361z M241.287,43.668
		v-0.657h0.416c0.229,0,0.515,0.048,0.515,0.31c0,0.307-0.2,0.35-0.489,0.35L241.287,43.668L241.287,43.668z"/>
	<g>
		<path fill="#009BD9" d="M34.219,26.092L30.28,13.809c-0.528-1.647-1.256-2.881-2.198-3.698c-0.933-0.822-1.939-1.383-3.008-1.695
			c-1.071-0.312-2.165-0.405-3.288-0.281c-1.122,0.124-2.12,0.323-3,0.605c-0.882,0.277-1.815,0.691-2.799,1.236
			c-0.984,0.549-1.825,1.253-2.516,2.121c-0.692,0.874-1.181,1.909-1.47,3.118c-0.289,1.208-0.166,2.637,0.359,4.284l4.651,14.513
			l-7.765,0.01l-4.41-13.767c-0.649-2.026-0.739-4-0.273-5.914C5.03,12.43,5.85,10.662,7.031,9.04
			c1.175-1.619,2.617-3.027,4.31-4.21c1.7-1.189,3.477-2.08,5.335-2.667c1.812-0.576,3.741-0.877,5.781-0.9
			c2.043-0.025,3.992,0.25,5.85,0.832c1.855,0.577,3.527,1.459,5.016,2.65c1.485,1.193,2.59,2.735,3.304,4.639l5.354,16.704
			L34.219,26.092z"/>
		<path fill="#0079A8" d="M9.399,34.021l3.079,9.603c0.511,1.597,1.236,2.821,2.184,3.669c0.947,0.843,1.956,1.419,3.024,1.729
			c1.071,0.312,2.168,0.401,3.285,0.277c1.12-0.119,2.121-0.32,3.002-0.601c0.884-0.281,1.814-0.695,2.801-1.237
			c0.983-0.549,1.821-1.257,2.513-2.125c0.694-0.868,1.181-1.923,1.459-3.148c0.28-1.231,0.163-2.651-0.352-4.248l-3.79-11.832
			l7.764-0.008l3.553,11.083c0.649,2.023,0.742,3.992,0.276,5.909c-0.464,1.915-1.288,3.685-2.468,5.304
			c-1.181,1.619-2.62,3.025-4.312,4.209c-1.698,1.191-3.474,2.08-5.338,2.672c-1.81,0.572-3.735,0.873-5.779,0.902
			c-2.038,0.021-3.988-0.258-5.846-0.837c-1.861-0.579-3.531-1.462-5.021-2.649c-1.487-1.194-2.585-2.74-3.306-4.643L1.636,34.035
			L9.399,34.021z"/>
	</g>
</g>
</svg>
